PathFileType	4	(X/Y/Z)	C:\Users\Biomechanik\SynologyDrive\AlexP\Athlete_03\Athlete_3_25_03_31\Walking_02\marker_experimental.trc
DataRate	CameraRate	NumFrames	NumMarkers	Units	OrigDataRate	OrigDataStartFrame	OrigNumFrames
200.000000	200.000000	4	53	mm	200.000000	184	493
Frame#	Time	GLAB			RFHD			LFHD			C7			T6			SPINMOL			SPINM2			SPINM3			T12			BELTOL			BELT2			BELT3			SACROL			SACR2			SACR3			LTHOL			LTH2			LTH3			LSHAOL			LSHA2			LSHA3			LHEE			LTOE			LM5			RTHOL			RTH2			RSHAOL			RSHA2			RSHA3			RHEE			RTOE			RM5			STRN			XIPH			LACR			LUAOL			LUA2			LUA3			LLAOL			LLA2			LLA3			LWRR			LWRU			RACR			RUAOL			RUA2			RUA3			RLAOL			RLA2			RLA3			RWRR			RWRU			RTH3			
		X1	Y1	Z1	X2	Y2	Z2	X3	Y3	Z3	X4	Y4	Z4	X5	Y5	Z5	X6	Y6	Z6	X7	Y7	Z7	X8	Y8	Z8	X9	Y9	Z9	X10	Y10	Z10	X11	Y11	Z11	X12	Y12	Z12	X13	Y13	Z13	X14	Y14	Z14	X15	Y15	Z15	X16	Y16	Z16	X17	Y17	Z17	X18	Y18	Z18	X19	Y19	Z19	X20	Y20	Z20	X21	Y21	Z21	X22	Y22	Z22	X23	Y23	Z23	X24	Y24	Z24	X25	Y25	Z25	X26	Y26	Z26	X27	Y27	Z27	X28	Y28	Z28	X29	Y29	Z29	X30	Y30	Z30	X31	Y31	Z31	X32	Y32	Z32	X33	Y33	Z33	X34	Y34	Z34	X35	Y35	Z35	X36	Y36	Z36	X37	Y37	Z37	X38	Y38	Z38	X39	Y39	Z39	X40	Y40	Z40	X41	Y41	Z41	X42	Y42	Z42	X43	Y43	Z43	X44	Y44	Z44	X45	Y45	Z45	X46	Y46	Z46	X47	Y47	Z47	X48	Y48	Z48	X49	Y49	Z49	X50	Y50	Z50	X51	Y51	Z51	X52	Y52	Z52	X53	Y53	Z53	

185	0.92	633.5440673828124	1597.087890625	209.2114868164064	581.5051269531249	1626.843994140625	270.6465454101564	593.4794311523436	1616.723754882812	133.0111236572267	407.8004760742186	1436.745849609375	197.8505859375001	351.213165283203	1267.030517578125	198.4545288085938	344.6451721191405	1226.369140625	178.0775756835938	336.3277893066405	1220.119506835938	227.3922424316407	348.6747131347655	1162.739135742188	195.9070739746094	373.9424743652343	1097.177978515625	200.7724914550782	339.965362548828	1061.575073242188	183.2209472656251	335.9758911132811	1059.868286132812	233.6722259521485	334.5691528320311	999.523193359375	204.6820983886719	352.729522705078	950.275146484375	183.8177490234376	351.7584838867186	945.8406982421875	234.9310913085938	340.5799255371093	888.1693725585938	204.4569854736329	508.7433776855468	668.2114868164062	37.54349899292001	466.6278381347656	604.205810546875	58.31991577148446	515.8073120117188	609.5471801757812	51.59694671630869	539.4341430664062	317.2301025390626	57.04301071167002	493.2466430664062	252.8683471679688	66.04948425292977	543.4573974609375	255.7300720214844	65.52550506591807	475.6700134277343	65.7687911987305	158.6537017822266	695.7939453125	47.35862350463871	163.1484375000001	650.6103515625	30.90051460266117	61.7871894836427	454.0661010742186	672.14013671875	413.7140502929688	513.4672241210936	630.4694213867188	445.3508911132814	397.6975097656249	429.0142211914062	418.4552612304688	364.4154968261718	357.4136352539062	415.9653625488282	349.1404113769531	398.8831787109375	393.2564697265626	195.3821411132812	295.5629272460938	262.1404113769532	260.9167480468749	98.68325805664064	298.8263854980469	208.6684112548827	144.3087158203125	387.1994018554688	580.6348876953124	1338.662963867188	211.7821197509767	595.6859741210936	1194.996826171875	218.6783294677736	497.8483581542968	1392.174194335938	29.37492179870615	495.2815246582031	1235.181030273438	-69.29968261718741	481.6428833007812	1173.5791015625	-88.51783752441398	526.4794921874999	1177.171630859375	-63.87157821655263	516.4489746093749	972.7350463867188	-114.8202819824218	478.1162414550781	904.6156005859375	-101.819610595703	525.6945190429688	911.6904296875	-114.5700302124022	550.6348266601562	810.9010620117188	-117.5661163330077	590.6467895507812	813.604248046875	-48.06181716918935	483.8591918945311	1398.83984375	374.0946044921876	471.2921447753905	1253.529541015625	476.4729614257814	498.5065917968748	1193.882446289062	486.2777099609376	449.0628356933592	1195.717895507812	500.4938659667969	508.0851440429686	978.2315063476562	535.8507080078126	573.918029785156	939.9431762695312	560.9501342773439	533.2571411132811	920.8156127929688	538.4122314453126	590.2210083007811	851.0115356445312	550.8020629882814	628.6072998046874	845.5967407226562	478.3474121093751	476.1229553222655	614.860595703125	416.0379943847657	
186	0.925	640.0522460937499	1598.050170898438	208.9547119140626	588.0032958984374	1627.80712890625	270.4004211425782	600.0123291015624	1617.733642578125	132.7496490478517	414.2235412597655	1437.759033203125	197.5017700195313	357.6857910156249	1268.00390625	197.8450775146485	351.1358947753905	1227.370727539062	177.4203643798829	342.8298034667968	1221.06884765625	226.7343444824219	355.2010192871093	1163.723754882812	195.1811981201172	380.457550048828	1098.221801757812	199.9898071289063	346.4932861328124	1062.92919921875	182.2482147216797	342.4323120117186	1061.201538085938	232.693344116211	340.9500732421874	1000.887084960938	203.6855926513672	359.089141845703	951.425048828125	183.4474639892579	358.2789306640624	947.1499633789062	234.5634002685547	346.9863281249999	889.393310546875	204.3206329345704	512.0675048828125	668.9841918945312	37.11927413940439	469.2747192382812	605.4964599609375	58.13793182373055	518.5177612304688	610.2238159179688	51.24303436279306	540.0999145507812	317.3427124023438	56.88650512695322	493.6828002929688	253.1721649169922	66.01699829101571	543.908447265625	255.8318634033203	65.35723114013682	475.7029418945312	65.894401550293	158.7247161865235	695.8138427734375	47.33716583251957	163.1267547607423	650.5978393554688	30.87225341796879	61.73036956787121	463.8605346679686	673.0441284179688	413.4414062500001	524.0708618164061	632.2603149414062	444.8385009765626	410.8779602050781	429.9033508300781	417.2051086425782	378.0931091308593	358.0935363769531	414.9385070800782	362.5455932617187	399.3678894042969	392.0433654785157	209.0213928222655	293.6573486328125	260.6662902832032	279.9765319824218	98.69524383544923	297.6784667968751	226.6494750976562	143.0530548095703	385.9802246093751	586.9767456054686	1339.707275390625	211.4498596191407	601.9973144531249	1196.02783203125	218.1546783447267	504.2308044433593	1393.421142578125	29.04004287719736	502.4435424804687	1236.544677734375	-69.81958007812491	489.2667541503906	1174.863525390625	-89.13131713867179	534.0206298828124	1178.739379882812	-64.39198303222646	526.0045166015624	974.2968139648438	-115.5144500732421	488.3731079101562	905.7646484375	-102.6855316162109	535.9505615234375	913.3772583007812	-115.1846771240233	562.0383911132812	812.8863525390625	-117.9636917114257	601.8782348632812	816.2012329101562	-48.40481185913075	490.0814819335936	1399.661499023438	373.7825012207032	476.8993225097655	1254.262451171875	476.0822753906251	503.9106140136717	1194.529052734375	485.899871826172	454.4347534179686	1196.518432617188	499.9833679199219	511.6373596191405	978.9115600585938	535.6994018554689	576.808166503906	939.8004760742188	561.2686767578126	536.0235595703124	921.1370239257812	538.5938110351564	591.8893432617186	850.5523071289062	551.5404663085939	630.5038452148436	844.3306884765625	479.306854248047	486.7990417480468	616.048095703125	415.7610473632814	
187	0.93	646.5467529296874	1598.96630859375	208.7424774169923	594.4869384765624	1628.71826171875	270.2007446289064	606.5350341796874	1618.707763671875	132.5334014892579	420.6352233886717	1438.725952148438	197.1756286621095	364.1552429199218	1268.932495117188	197.2579040527344	357.6239318847655	1228.328247070312	176.7858581542969	349.3320922851561	1221.973999023438	226.0985107421876	361.7246093749999	1164.664184570312	194.4785766601563	386.9649658203124	1099.223266601562	199.2309722900391	353.004913330078	1064.240112304688	181.3259735107422	348.8756408691405	1062.493286132812	231.7649078369141	347.3156127929686	1002.208679199219	202.7391357421876	365.4339599609374	952.5201416015625	183.1295166015626	364.7868347167968	948.429443359375	234.2485961914063	353.3534851074218	890.577880859375	204.2672424316407	515.2887573242188	669.7496337890625	36.72538757324228	471.8677368164062	606.7957153320312	58.07333374023446	521.1568603515625	610.8953857421875	50.94850158691415	540.714111328125	317.4729919433594	56.75179672241221	494.0750122070312	253.4923400878907	66.02394866943368	544.3154296875	255.9517211914063	65.21469879150401	475.7445373535156	66.02697753906253	158.8064575195313	695.8367309570312	47.31274032592778	163.1060028076173	650.5842895507812	30.83963966369633	61.68046569824231	473.6302795410155	673.9737548828125	413.2241821289064	534.6630249023436	634.0523071289062	444.2891845703126	424.0007934570312	430.5325927734375	416.0390014648438	391.8606262207031	358.4648742675781	413.9049682617188	375.9258422851562	399.5419921875	390.9268188476563	222.7932586669921	291.3308715820312	259.2406921386719	299.2944030761718	98.48499298095705	296.5113525390626	244.8730773925781	141.4664459228516	384.7643432617188	593.3070068359374	1340.719482421875	211.1303253173829	608.3265991210936	1197.025512695312	217.6450042724611	510.5849609374999	1394.648193359375	28.724464416504	509.5541381835937	1237.89697265625	-70.33189392089834	496.8329162597656	1176.137573242188	-89.72585296630851	541.5131225585936	1180.300903320312	-64.91634368896474	535.5198974609374	975.8689575195312	-116.1823348999022	498.6159057617187	906.9288330078125	-103.4919662475585	546.1774291992188	915.08544921875	-115.7693710327147	573.427001953125	814.9153442382812	-118.3239288330077	613.1167602539062	818.8505859375	-48.73483657836903	496.3074645996092	1400.451538085938	373.4857177734376	482.4772033691405	1254.97021484375	475.7205505371095	509.2743225097655	1195.145751953125	485.554901123047	459.7582092285155	1197.29638671875	499.4818420410157	515.173156738281	979.6026611328125	535.5756225585939	579.6796874999998	939.6986694335938	561.6072387695314	538.7871704101561	921.4856567382812	538.8002929687501	593.5520629882811	850.1482543945312	552.2957153320314	632.3790893554686	843.1253662109375	480.2897949218751	497.4234619140624	617.2579345703125	415.5058593750001	
188	0.9350000000000001	653.0285644531249	1599.832763671875	208.5736541748048	600.9569702148436	1629.573608398438	270.0461730957032	613.0483398437499	1619.642456054688	132.3614959716798	427.038360595703	1439.642944335938	196.8714294433595	370.6222839355468	1269.813720703125	196.6932983398438	364.1096801757811	1229.239013671875	176.1741485595704	355.8346252441405	1222.832275390625	225.484848022461	368.2452087402343	1165.557983398438	193.7996520996094	393.4649658203124	1100.17822265625	198.4971313476563	359.4972534179686	1065.49365234375	180.4581146240235	355.3042907714843	1063.730346679688	230.8908691406251	353.6659851074218	1003.47412109375	201.8477935791016	371.7641296386718	953.5545043945312	182.8580474853516	371.2819824218749	949.6696166992188	233.9808807373047	359.679718017578	891.716552734375	204.2863922119141	518.42333984375	670.5031127929688	36.36173248291025	474.4227294921874	608.0986328125	58.12508773803719	523.7396240234375	611.5585327148438	50.71271514892588	541.28515625	317.6202697753907	56.64071273803721	494.4308166503906	253.82763671875	66.06468200683602	544.6854858398438	256.0888061523438	65.09925842285166	475.7965393066406	66.16569519042972	158.9010620117188	695.8634643554688	47.28432083129887	163.0877227783204	650.5698852539062	30.80344009399418	61.63866806030286	483.3702697753905	674.9212646484375	413.0620117187501	545.2357788085936	635.8405151367188	443.7022399902345	437.0598754882812	430.8916320800781	414.9644165039063	405.7164306640624	358.5205993652344	412.8582153320313	389.2776489257812	399.3982543945312	389.9096984863282	236.7061614990234	288.590087890625	257.8645324707032	318.8500976562499	98.06741333007814	295.3400573730469	263.3289794921874	139.5765228271485	383.5611877441407	599.6279907226561	1341.693359375	210.8240814208986	614.6721191406249	1197.984252929688	217.1494445800782	516.9158935546874	1395.849609375	28.42822456359873	516.6185913085936	1239.233032226562	-70.83766174316396	504.3437499999999	1177.397827148438	-90.30378723144521	548.9597778320311	1181.85009765625	-65.44544982910146	544.9930419921874	977.4445190429688	-116.8267135620116	508.8433227539062	908.1021118164062	-104.2397460937499	556.3736572265625	916.8082885742188	-116.3256149291991	584.7994384765625	816.9818725585938	-118.647117614746	624.3611450195312	821.5479125976562	-49.05156326293934	502.5409240722655	1401.20556640625	373.2039184570314	488.0276794433592	1255.650146484375	475.3863830566407	514.599182128906	1195.72900390625	485.241912841797	465.0355224609373	1198.048706054688	498.9883422851564	518.6920776367185	980.2970581054688	535.4765625000001	582.5317382812498	939.630615234375	561.9659423828126	541.5510864257811	921.853515625	539.0262451171876	595.2144165039061	849.7950439453125	553.0648803710939	634.2395629882811	841.9771728515625	481.2922973632814	507.989776611328	618.4838256835938	415.2721252441407	
